<svg width="24" height="24" viewBox="0 0 24 24" fill="none" xmlns="http://www.w3.org/2000/svg">
<path d="M15.75 17.25C16.5784 17.25 17.25 16.5784 17.25 15.75C17.25 14.9216 16.5784 14.25 15.75 14.25C14.9216 14.25 14.25 14.9216 14.25 15.75C14.25 16.5784 14.9216 17.25 15.75 17.25Z" fill="#FFD0D9" fill-opacity="0.8"/>
<path d="M5.25 6.75C6.07843 6.75 6.75 6.07843 6.75 5.25C6.75 4.42157 6.07843 3.75 5.25 3.75C4.42157 3.75 3.75 4.42157 3.75 5.25C3.75 6.07843 4.42157 6.75 5.25 6.75Z" fill="#FFD0D9" fill-opacity="0.8"/>
<path d="M20.25 23.25C19.6567 23.25 19.0766 23.0741 18.5833 22.7444C18.0899 22.4148 17.7054 21.9462 17.4784 21.3981C17.2513 20.8499 17.1919 20.2467 17.3076 19.6647C17.4234 19.0828 17.7091 18.5482 18.1287 18.1287C18.5482 17.7091 19.0828 17.4234 19.6647 17.3076C20.2467 17.1919 20.8499 17.2513 21.3981 17.4784C21.9462 17.7054 22.4148 18.0899 22.7444 18.5833C23.0741 19.0766 23.25 19.6567 23.25 20.25C23.2476 21.0449 22.9308 21.8066 22.3687 22.3687C21.8066 22.9308 21.0449 23.2476 20.25 23.25ZM20.25 18.75C19.9533 18.75 19.6633 18.838 19.4166 19.0028C19.17 19.1676 18.9777 19.4019 18.8642 19.676C18.7507 19.9501 18.7209 20.2517 18.7788 20.5426C18.8367 20.8336 18.9796 21.1009 19.1893 21.3107C19.3991 21.5204 19.6664 21.6633 19.9574 21.7212C20.2483 21.7791 20.5499 21.7494 20.824 21.6358C21.0981 21.5223 21.3324 21.33 21.4972 21.0834C21.662 20.8367 21.75 20.5467 21.75 20.25C21.7488 19.8525 21.5904 19.4717 21.3094 19.1907C21.0283 18.9096 20.6475 18.7512 20.25 18.75V18.75Z" fill="#FFD0D9" fill-opacity="0.8"/>
<path d="M22.5 12C22.4919 9.21774 21.383 6.55174 19.4157 4.58436C17.4483 2.61698 14.7823 1.50813 12 1.50002C10.2084 1.47446 8.44428 1.94145 6.9 2.85002L7.725 4.12502C8.31126 3.84324 8.91211 3.59288 9.525 3.37502C8.28517 5.82146 7.5941 8.50897 7.5 11.25H3C3.08404 10.0117 3.44271 8.80753 4.05 7.72502L2.925 6.75002C1.99179 8.34225 1.4999 10.1545 1.5 12C1.4998 13.379 1.77126 14.7444 2.29886 16.0184C2.82647 17.2924 3.59989 18.45 4.57494 19.4251C5.54999 20.4001 6.70758 21.1736 7.98159 21.7012C9.2556 22.2288 10.6211 22.5002 12 22.5C13.337 22.5126 14.663 22.2576 15.9 21.75L15.45 20.325C14.2204 20.8508 12.8848 21.082 11.55 21C9.9506 18.5401 9.06763 15.6834 9 12.75H22.425C22.487 12.5051 22.5123 12.2524 22.5 12V12ZM9.6 20.7C8.1086 20.253 6.7457 19.4558 5.625 18.375C4.13689 16.8523 3.21116 14.8686 3 12.75H7.5C7.6032 15.5227 8.32044 18.238 9.6 20.7V20.7ZM9 11.25C9.05965 8.32615 9.91534 5.47388 11.475 3.00002H12.525C14.0847 5.47388 14.9403 8.32615 15 11.25H9ZM16.5 11.25C16.4429 8.47062 15.723 5.74503 14.4 3.30002C16.1647 3.80865 17.7333 4.84105 18.8984 6.26062C20.0636 7.6802 20.7702 9.42006 20.925 11.25H16.5Z" fill="#FFD0D9" fill-opacity="0.8"/>
</svg>
